<svg width="16" height="16" viewBox="0 0 16 16" fill="none" xmlns="http://www.w3.org/2000/svg">
<rect width="16" height="16" rx="2" fill="#F29C50"/>
<path d="M10.8837 7.28249C10.8536 6.91095 11.3312 6.42823 11.5992 6.68733V6.68733C12.405 7.46589 12.9032 8.54112 12.9032 9.72896C12.903 12.103 10.9099 14.0288 8.45182 14.0288C5.99265 14.0288 4 12.103 4 9.72881C4 8.54097 4.49883 7.46574 5.304 6.68718C6.17333 5.84772 6.608 4.74678 6.608 3.64584V3.64584C6.608 3.13624 7.17784 2.76321 7.44376 3.19794C8.17355 4.39102 8.18151 5.93203 7.3315 7.16111C7.22035 7.322 7.16722 7.50393 7.16785 7.68422C7.16864 7.98659 7.31967 8.2828 7.59983 8.46398C8.04617 8.75192 8.65 8.6357 8.94829 8.20431C9.09255 7.99591 9.16082 7.76075 9.16302 7.52769V7.52769C9.16427 7.38268 9.50722 7.0778 9.60421 7.18561C9.90843 7.52376 10.1175 7.93152 10.2138 8.36666C10.2648 8.59697 10.5631 8.69783 10.6639 8.48458C10.8433 8.10526 10.9166 7.69061 10.8837 7.28249Z" fill="#182526"/>
<path d="M10.0015 3.6902C10.1959 3.40922 10.2533 3.07828 10.1888 2.77109C10.1034 2.36412 9.58286 2.57292 9.28395 2.86201V2.86201C8.79142 3.33775 8.79142 4.1094 9.28395 4.58529V4.58529C9.45896 4.75424 9.70085 4.5659 9.74147 4.32606C9.77885 4.10533 9.86427 3.88856 10.0015 3.6902Z" fill="#182526"/>
</svg>
