<svg width="40" height="39" viewBox="0 0 40 39" fill="none" xmlns="http://www.w3.org/2000/svg">
<path d="M35.6072 16.3209H34.3095V16.254H19.8095V22.6984H28.9147C27.5863 26.4499 24.0169 29.1429 19.8095 29.1429C14.4711 29.1429 10.1428 24.8146 10.1428 19.4762C10.1428 14.1378 14.4711 9.80956 19.8095 9.80956C22.2737 9.80956 24.5155 10.7392 26.2225 12.2576L30.7795 7.70061C27.9021 5.01892 24.0531 3.36511 19.8095 3.36511C10.9121 3.36511 3.69836 10.5789 3.69836 19.4762C3.69836 28.3736 10.9121 35.5873 19.8095 35.5873C28.7068 35.5873 35.9206 28.3736 35.9206 19.4762C35.9206 18.396 35.8094 17.3415 35.6072 16.3209Z" fill="#FFC107"/>
<path d="M5.55603 11.9773L10.8493 15.8593C12.2816 12.3132 15.7503 9.80956 19.8095 9.80956C22.2737 9.80956 24.5156 10.7392 26.2226 12.2576L30.7796 7.70061C27.9021 5.01892 24.0532 3.36511 19.8095 3.36511C13.6213 3.36511 8.25464 6.85881 5.55603 11.9773Z" fill="#FF3D00"/>
<path d="M19.8095 35.5873C23.971 35.5873 27.7522 33.9947 30.6112 31.4049L25.6248 27.1854C24.0072 28.4106 21.9966 29.1429 19.8095 29.1429C15.619 29.1429 12.0608 26.4709 10.7204 22.7419L5.46655 26.7899C8.13294 32.0074 13.5479 35.5873 19.8095 35.5873Z" fill="#4CAF50"/>
<path d="M35.6073 16.3208H34.3096V16.254H19.8096V22.6984H28.9148C28.2768 24.5004 27.1176 26.0544 25.6225 27.1862L25.6249 27.1846L30.6113 31.4041C30.2584 31.7247 35.9207 27.5317 35.9207 19.4762C35.9207 18.3959 35.8095 17.3415 35.6073 16.3208Z" fill="#1976D2"/>
</svg>
