<svg width="668" height="688" viewBox="0 0 668 688" fill="none" xmlns="http://www.w3.org/2000/svg">
<g clip-path="url(#clip0_135_75)">
<path fill-rule="evenodd" clip-rule="evenodd" d="M636.138 356.193C636.138 419.17 613.877 472.909 569.303 517.437C524.835 562.045 471.169 584.335 408.276 584.335C345.383 584.335 291.663 562.018 247.115 517.437C202.647 472.909 180.414 419.143 180.414 356.193C180.414 293.242 202.647 239.422 247.115 194.814C291.663 150.287 345.383 128.023 408.276 128.023C471.169 128.023 524.835 150.287 569.303 194.814C613.851 239.422 636.138 293.215 636.138 356.193Z" fill="url(#paint0_radial_135_75)"/>
<path fill-rule="evenodd" clip-rule="evenodd" d="M355.574 353.48C356.111 356.112 356.915 360.114 358.015 365.485C359.115 370.856 361.287 377.463 364.559 385.305C367.831 393.147 370.594 406.87 372.873 426.395C362.253 425.857 346.161 425.589 324.544 425.589C295.417 425.965 274.417 426.368 261.517 426.824C261.436 426.636 261.383 426.502 261.383 426.421C260.122 417.425 259.693 408.965 260.095 401.016C260.471 393.066 261.222 386.459 262.348 381.169C263.475 375.905 266.774 366.425 272.299 352.675C275.007 349.855 277.689 348.324 280.318 348.028C283.053 347.76 285.172 347.706 286.728 347.894C288.176 347.975 291.046 348.941 295.31 350.768C297.027 351.493 298.528 352.191 299.789 352.809C301.613 353.534 303.007 354.125 304 354.581C305.448 354.044 307.004 353.453 308.64 352.809C321.352 348.082 330.23 345.719 335.325 345.719C336.881 345.719 338.49 345.853 340.233 346.122C340.502 345.934 340.77 345.799 341.038 345.719H341.709C341.896 345.719 342.218 345.772 342.674 345.853C343.479 346.041 344.659 346.39 346.214 346.954C348.762 347.76 350.21 348.404 350.559 348.861C351.203 349.398 351.686 350.177 352.061 351.171C353.241 351.815 354.421 352.567 355.601 353.48H355.574Z" fill="#90C8D8"/>
<path fill-rule="evenodd" clip-rule="evenodd" d="M205.302 464.02C205.49 459.831 208.467 456.742 214.287 454.755C219.356 452.929 225.847 451.989 233.758 451.881C235.126 454.057 236.628 456.205 238.237 458.273C238.613 458.81 239.015 459.374 239.471 459.911C241.643 462.812 243.923 465.632 246.283 468.371C246.471 468.64 246.686 468.908 246.954 469.177C242.689 469.633 238.962 470.09 235.797 470.546C230.808 471.271 226.302 471.782 222.333 472.05C218.256 472.319 214.797 471.916 211.981 470.815C209.084 469.714 206.938 468.532 205.571 467.27C205.49 467.001 205.437 466.733 205.437 466.464L205.302 464.02Z" fill="#530202"/>
<path fill-rule="evenodd" clip-rule="evenodd" d="M526.82 433.082C527.008 435.445 527.195 437.674 527.356 439.769C477.525 438.776 430.724 445.758 386.873 460.771C386.873 460.583 386.82 460.448 386.739 460.368H386.471C386.471 455.185 386.337 451.425 386.069 449.061C399.693 446.618 417.046 443.207 438.207 438.829C462.881 434.479 486.214 432.276 508.18 432.276C515.26 432.276 521.483 432.545 526.82 433.082ZM258.54 456.259C258.915 457.253 259.398 458.488 260.042 459.938C261.41 463.295 262.027 465.256 261.946 465.793C258.03 462.892 251.111 460.932 241.134 459.938H239.498C239.042 459.401 238.64 458.837 238.264 458.3C236.628 456.205 235.126 454.084 233.785 451.908H234.59C239.31 451.908 245.613 452.902 253.498 454.916C255.322 455.373 256.984 455.829 258.54 456.286V456.259Z" fill="#69ADBF"/>
<path fill-rule="evenodd" clip-rule="evenodd" d="M417.931 8.48643C420.103 7.84189 423.161 6.98249 427.05 5.90825C430.858 4.91457 435.257 4.35059 440.245 4.27002C445.153 4.18945 450.276 4.13574 455.64 4.13574C460.709 4.21631 465.804 4.94143 470.873 6.31109C475.781 7.76132 480.529 9.53382 485.168 11.6286C485.705 11.8972 486.268 12.1657 486.804 12.4343C497.693 18.5306 506.732 24.7344 513.893 31.0993L512.391 35.6111C512.042 35.3426 511.666 35.074 511.291 34.8054C509.119 32.9792 506.812 31.341 504.345 29.8908C501.448 28.0645 498.82 26.3995 496.46 24.8418C494.019 23.311 491.203 21.8339 488.011 20.4911C484.847 19.1215 481.843 17.8592 479.027 16.6776C476.13 15.4959 472.59 14.3679 468.406 13.2668C464.222 12.1657 460.414 11.4138 456.981 10.9572C453.521 10.4201 449.846 10.2321 445.958 10.4201C442.149 10.6081 438.528 10.8229 435.069 11.0915C431.528 11.36 428.256 11.6017 425.279 11.7629C422.463 11.8434 419.755 12.3537 417.099 13.2668L417.904 8.48643H417.931Z" fill="#FF9900"/>
<path fill-rule="evenodd" clip-rule="evenodd" d="M529.958 456.93C528.965 452.392 528.107 446.671 527.383 439.769C527.195 437.674 527.008 435.445 526.847 433.082C538.46 434.344 545.782 437.03 548.759 441.139C549.751 442.589 550.261 444.174 550.261 445.919C550.261 448.739 546.586 451.371 539.237 453.815C535.51 455.077 532.425 456.125 529.985 456.957L529.958 456.93Z" fill="#2B0000"/>
<path fill-rule="evenodd" clip-rule="evenodd" d="M261.517 426.824C261.597 428.194 261.785 429.644 262.053 431.175C262.322 433.27 262.643 435.257 263.019 437.164C264.118 443.072 265.325 448.121 266.693 452.284C267.498 454.835 268.383 457.064 269.268 458.971L268.034 459.643C267.042 457.628 266.13 455.319 265.299 452.687C263.931 448.497 262.724 443.475 261.624 437.567C261.249 435.66 260.954 433.646 260.686 431.578C260.417 429.94 260.176 428.355 260.015 426.798C258.755 417.801 258.272 409.422 258.594 401.66C258.915 393.872 259.318 388.071 259.747 384.204C260.176 380.337 261.141 376.254 262.617 371.931C264.092 367.634 265.513 363.954 266.827 360.893C268.141 357.831 269.617 353.534 271.253 347.948C272.915 342.362 273.023 337.823 271.601 334.386C273.291 336.883 274.096 339.408 274.042 342.013C274.015 344.618 273.425 348.163 272.272 352.648C266.747 366.398 263.448 375.878 262.322 381.142C261.222 386.406 260.471 393.013 260.069 400.989C259.666 408.938 260.096 417.398 261.356 426.395C261.356 426.475 261.41 426.61 261.49 426.798L261.517 426.824Z" fill="#9C0000"/>
<path fill-rule="evenodd" clip-rule="evenodd" d="M548.866 275.651C548.598 274.55 548.142 269.34 547.498 259.967C546.854 250.245 546.532 245.331 546.532 245.25H547.069C549.509 247.613 552.835 246.378 557.019 241.571C560.747 237.22 562.598 233.702 562.598 231.07C562.598 225.967 559.567 223.443 553.479 223.443C550.314 223.443 547.578 224.114 545.326 225.484C543.877 226.397 537.172 241.034 525.184 269.367C522.448 277.182 520.061 283.816 517.969 289.267C504.801 288.086 496.701 281.586 493.617 269.77C503.701 266.493 510.46 261.552 513.893 254.918C517.057 248.822 520.061 241.517 522.877 232.977C524.701 227.069 527.008 221.67 529.824 216.756C533.176 211.223 537.575 205.718 543.019 200.266C546.559 196.641 553.372 191.645 563.429 185.28C568.954 181.735 574.237 178.378 579.226 175.183V176.955C577.778 196.318 573.111 215.359 565.199 234.078C559.487 247.801 554.042 261.659 548.866 275.651ZM201.896 182.138C203.076 176.31 204.471 170.563 206.107 164.816C206.643 162.909 207.233 161.002 207.877 159.096C211.873 165.085 215.038 173.007 217.398 182.81C218.578 187.536 219.678 193.31 220.67 200.132C221.207 203.945 222.199 210.525 223.674 219.898C225.042 229.271 226.946 236.978 229.387 243.075C231.747 249.171 234.697 252.018 238.237 251.669C233.249 258.49 229.494 262.519 226.946 263.808C224.318 264.989 220.697 266.037 216.057 266.95C216.245 262.223 215.843 254.408 214.823 243.504C213.831 232.681 213.268 224.571 213.187 219.119C213.187 213.667 212.517 206.121 211.149 196.506C210.693 193.337 210.291 190.544 209.915 188.181C207.287 185.28 205.383 183.588 204.203 183.132C203.291 182.783 202.513 182.461 201.896 182.192V182.138ZM198.356 205.449C199.161 205.718 199.992 205.852 200.797 205.852C201.333 205.852 201.896 205.798 202.433 205.718C201.896 207.813 200.663 211.626 198.758 217.159C197.954 219.522 197.256 221.563 196.72 223.282C197.176 217.293 197.712 211.331 198.356 205.422V205.449Z" fill="#8E2D1C"/>
<path fill-rule="evenodd" clip-rule="evenodd" d="M505.578 55.9416C475.46 45.7632 444.429 39.9891 412.46 38.6195H412.325L417.099 13.2673C419.728 12.3542 422.463 11.8708 425.279 11.7633C428.283 11.5753 431.529 11.3605 435.069 11.0919C438.529 10.8234 442.149 10.5817 445.958 10.4205C449.873 10.2325 453.548 10.4205 456.981 10.9577C460.414 11.4142 464.249 12.193 468.406 13.2673C472.59 14.3684 476.13 15.4963 479.027 16.678C481.843 17.8597 484.847 19.1219 488.011 20.4916C491.176 21.8612 493.992 23.3115 496.46 24.8423C498.82 26.3999 501.448 28.065 504.345 29.8912C506.785 31.3414 509.119 32.9797 511.291 34.8059C511.667 35.0744 512.015 35.343 512.391 35.6116L505.578 55.9148V55.9416Z" fill="url(#paint1_linear_135_75)"/>
<path fill-rule="evenodd" clip-rule="evenodd" d="M196.72 223.309C197.256 221.59 197.954 219.549 198.758 217.186C200.663 211.653 201.896 207.84 202.433 205.745C201.896 205.825 201.333 205.879 200.797 205.879C199.992 205.879 199.161 205.745 198.356 205.476C197.256 205.127 196.237 204.483 195.218 203.57C193.046 201.475 191.946 198.762 191.946 195.378C191.946 193.015 192.59 190.383 193.85 187.483C195.486 183.669 197.605 181.762 200.26 181.762C200.528 181.762 201.065 181.897 201.896 182.165C202.54 182.434 203.291 182.756 204.203 183.105C205.383 183.562 207.287 185.227 209.915 188.154C210.291 190.517 210.693 193.284 211.149 196.48C212.517 206.121 213.187 213.641 213.187 219.092C213.268 224.544 213.831 232.682 214.823 243.478C215.816 254.381 216.218 262.196 216.057 266.923C220.697 266.01 224.318 264.963 226.946 263.781C229.494 262.519 233.249 258.463 238.237 251.642C234.697 251.991 231.747 249.144 229.387 243.048C226.946 236.952 225.042 229.244 223.674 219.871C222.226 210.525 221.233 203.919 220.67 200.105C219.678 193.284 218.578 187.51 217.398 182.783C215.038 172.98 211.873 165.058 207.877 159.069C213.509 140.538 221.341 122.733 231.425 105.652C249.207 75.6538 275.437 56.4786 310.115 48.1263C343.613 40.1232 377.674 36.9542 412.352 38.5924H412.486C444.429 39.9621 475.46 45.7361 505.605 55.9146C508.77 57.0157 511.962 58.1437 515.126 59.3253C550.609 72.5117 571.341 97.7027 577.322 134.979C579.494 148.514 580.138 161.916 579.226 175.183C574.237 178.352 568.981 181.736 563.429 185.281C553.345 191.645 546.559 196.641 543.019 200.266C537.575 205.718 533.176 211.224 529.824 216.756C527.008 221.671 524.701 227.069 522.877 232.977C520.061 241.517 517.084 248.822 513.893 254.918C510.433 261.552 503.674 266.493 493.617 269.77C496.701 281.587 504.827 288.086 517.969 289.267C520.061 283.816 522.448 277.182 525.184 269.367C537.172 241.007 543.877 226.397 545.326 225.484C547.605 224.114 550.314 223.443 553.479 223.443C559.567 223.443 562.598 225.994 562.598 231.07C562.598 233.702 560.747 237.193 557.019 241.571C552.835 246.378 549.536 247.614 547.069 245.25H546.532C546.532 245.25 546.854 250.245 547.498 259.967C548.142 269.313 548.598 274.55 548.866 275.651C543.341 290.825 538.165 306.187 533.337 321.71C530.441 322.435 527.517 323.106 524.621 323.751C507.295 327.376 490.452 329.202 474.119 329.202C462.13 329.202 446.977 327.94 428.659 325.389C410.234 322.838 399.532 321.575 396.529 321.575C382.743 321.575 372.927 323.536 367.134 327.43C360.053 332.157 356.191 340.831 355.575 353.454C354.394 352.54 353.214 351.762 352.034 351.144C351.686 350.15 351.176 349.371 350.532 348.834C350.157 348.378 348.709 347.733 346.188 346.927C344.632 346.39 343.452 346.014 342.647 345.826C342.191 345.746 341.87 345.692 341.682 345.692H341.011C340.743 345.773 340.475 345.907 340.207 346.095C338.49 345.826 336.854 345.692 335.299 345.692C330.23 345.692 321.325 348.055 308.613 352.782C306.977 353.427 305.448 354.018 303.973 354.555C302.981 354.098 301.559 353.507 299.762 352.782C298.502 352.138 297 351.466 295.283 350.741C291.019 348.915 288.149 347.975 286.701 347.867C285.145 347.679 283.027 347.733 280.291 348.002C277.663 348.27 274.981 349.828 272.272 352.648C273.425 348.163 273.988 344.618 274.042 342.013C274.096 339.408 273.264 336.856 271.601 334.386C271.333 333.929 271.011 333.473 270.663 333.016C267.766 329.471 263.18 326.651 256.904 324.556C252.559 322.999 243.735 320.958 230.486 318.433C216.781 315.694 204.981 313.062 195.084 310.537C193.716 281.372 194.279 252.287 196.72 223.309Z" fill="url(#paint2_radial_135_75)"/>
<path fill-rule="evenodd" clip-rule="evenodd" d="M513.893 31.1264C506.732 24.7615 497.693 18.5308 486.804 12.4614C486.268 12.1928 485.705 11.9242 485.169 11.6557C480.529 9.5609 475.781 7.7884 470.873 6.33817C465.778 4.9685 460.709 4.24339 455.64 4.16282C450.276 4.16282 445.153 4.21653 440.245 4.2971C435.257 4.37767 430.858 4.94165 427.05 5.93532C423.161 7.03643 420.103 7.89582 417.931 8.51351L418.735 4.56566C454.942 -5.8008 487.153 1.55778 515.395 26.6414L513.893 31.1264Z" fill="url(#paint3_linear_135_75)"/>
<path fill-rule="evenodd" clip-rule="evenodd" d="M548.732 441.112C545.728 437.03 538.433 434.344 526.82 433.055C521.456 432.518 515.26 432.249 508.18 432.249C486.214 432.249 462.908 434.425 438.207 438.802C417.073 443.153 399.693 446.564 386.069 449.034C382.153 449.679 378.532 450.27 375.18 450.807C375.099 449.437 374.992 448.094 374.912 446.725C374.456 442.267 374.053 438.104 373.678 434.183C373.41 431.444 373.142 428.865 372.873 426.421C370.594 406.87 367.831 393.174 364.559 385.332C361.287 377.49 359.115 370.856 358.015 365.512C356.915 360.141 356.111 356.139 355.574 353.507C356.218 340.885 360.053 332.21 367.134 327.484C372.927 323.589 382.743 321.629 396.528 321.629C399.532 321.629 410.233 322.891 428.659 325.442C446.977 327.994 462.157 329.256 474.119 329.256C490.452 329.256 507.295 327.43 524.621 323.804C527.517 323.16 530.44 322.488 533.337 321.763C533.149 331.942 533.337 343.624 533.873 356.784C533.954 360.248 534.088 363.793 534.276 367.419C534.544 372.682 534.866 378.188 535.241 383.908C535.965 396.45 537.521 407.542 539.881 417.156C540.686 420.889 541.705 424.38 542.885 427.657C544.521 432.652 546.479 437.164 548.732 441.139V441.112Z" fill="url(#paint4_linear_135_75)"/>
<path fill-rule="evenodd" clip-rule="evenodd" d="M233.758 451.881C225.873 451.962 219.383 452.929 214.287 454.755C208.494 456.742 205.49 459.858 205.302 464.02C204.659 460.932 204.069 457.843 203.532 454.755C202.62 449.491 201.762 444.12 200.958 438.668C195.325 399.673 193.368 356.972 195.111 310.538C205.007 313.089 216.808 315.721 230.513 318.433C243.762 320.985 252.559 323.026 256.931 324.556C263.18 326.651 267.766 329.471 270.689 333.016C271.065 333.473 271.36 333.929 271.628 334.386C273.05 337.823 272.942 342.362 271.279 347.948C269.643 353.534 268.168 357.858 266.854 360.893C265.513 363.954 264.119 367.634 262.643 371.931C261.168 376.255 260.23 380.337 259.774 384.204C259.318 388.071 258.942 393.872 258.62 401.66C258.299 409.422 258.781 417.801 260.042 426.798C260.23 428.355 260.444 429.94 260.712 431.578C260.981 433.673 261.302 435.66 261.651 437.567C262.751 443.475 263.958 448.524 265.325 452.687C266.13 455.319 267.042 457.629 268.061 459.643C265.969 458.649 262.804 457.521 258.54 456.232C256.984 455.776 255.322 455.319 253.498 454.862C245.613 452.875 239.31 451.854 234.59 451.854H233.785L233.758 451.881Z" fill="url(#paint5_linear_135_75)"/>
<path fill-rule="evenodd" clip-rule="evenodd" d="M246.954 469.203C246.686 468.935 246.444 468.666 246.283 468.398C243.923 465.685 241.643 462.865 239.471 459.938H241.107C251.084 460.932 258.03 462.892 261.919 465.792C262 465.255 261.383 463.295 260.015 459.938C259.371 458.488 258.889 457.252 258.513 456.259C262.777 457.521 265.942 458.676 268.034 459.669L269.268 458.998C268.356 457.091 267.498 454.862 266.693 452.311C265.325 448.121 264.118 443.099 263.019 437.191C262.643 435.284 262.348 433.297 262.053 431.202C261.785 429.671 261.597 428.194 261.517 426.851C274.391 426.395 295.417 425.992 324.544 425.616C346.134 425.616 362.253 425.884 372.873 426.421C373.142 428.865 373.41 431.47 373.678 434.183C374.053 438.077 374.456 442.267 374.912 446.725C374.992 448.094 375.099 449.437 375.18 450.807C378.532 450.27 382.18 449.679 386.069 449.034C386.337 451.398 386.471 455.157 386.471 460.341H386.739C386.739 460.341 386.873 460.556 386.873 460.744C430.697 445.758 477.525 438.748 527.356 439.742C528.08 446.644 528.939 452.364 529.931 456.903C530.199 458.541 530.521 459.992 530.87 461.254C532.506 467.243 534.678 473.017 537.414 478.576C525.425 496.194 514.509 512.254 504.613 526.702C497.613 536.773 491.632 545.421 486.644 552.591C477.122 547.596 463.471 542.95 445.663 538.68C431.689 535.323 412.942 531.671 389.448 527.776C362.226 523.426 341.977 520.096 328.728 517.84C312.207 515.1 296.249 508.762 280.827 498.745C268.383 490.742 257.092 480.886 246.927 469.176L246.954 469.203Z" fill="url(#paint6_radial_135_75)"/>
<path fill-rule="evenodd" clip-rule="evenodd" d="M486.67 552.618C491.659 545.448 497.667 536.8 504.64 526.729C514.536 512.281 525.452 496.247 537.441 478.603C538.084 479.973 538.755 481.315 539.479 482.685C543.475 490.124 545.916 495.146 546.827 497.671C548.919 503.848 549.965 512.039 549.965 522.217C549.965 543.675 542.885 561.615 528.724 576.064C522.636 582.321 515.877 587.102 508.448 590.378C501.099 593.655 494.019 595.051 487.207 594.595C481.682 594.245 477.31 594.917 474.145 596.636C472.429 597.549 471.276 598.918 470.739 600.718C470.203 602.544 470.364 604.531 471.276 606.707C469.452 605.901 468.057 604.612 467.038 602.893C466.126 601.255 465.778 599.751 465.939 598.408C466.314 595.588 467.36 593.601 469.077 592.419C472.161 590.324 476.076 588.471 480.797 586.833C483.345 585.839 487.019 584.604 491.82 583.154C499.356 580.334 503.111 576.332 503.111 571.149C503.111 564.435 497.613 558.258 486.644 552.618H486.67Z" fill="url(#paint7_radial_135_75)"/>
<path fill-rule="evenodd" clip-rule="evenodd" d="M290.429 115.696C295.551 120.45 299.333 123.108 301.774 123.699C304.348 124.317 306.119 124.451 307.111 124.129C308.801 123.592 310.329 121.819 311.724 118.838C312.716 116.69 313.226 113.655 313.199 109.761C313.119 105.276 312.314 100.925 310.812 96.6552C306.574 85.2145 298.153 77.9902 285.574 74.9554C269.885 71.1956 256.394 73.3709 245.13 81.5083C239.444 85.5904 235.314 90.1023 232.766 95.0707C231.532 97.7294 230.835 101.301 230.674 105.759C230.54 111.453 231.988 114.676 235.046 115.401C237.406 115.965 240.222 115.669 243.494 114.541C244.835 114.112 247.919 112.769 252.774 110.513C261.437 106.485 268.678 105.169 274.498 106.565C279.942 107.881 285.253 110.916 290.429 115.669V115.696Z" fill="#7BB8C9"/>
<path fill-rule="evenodd" clip-rule="evenodd" d="M309.552 114.327C310.544 112.178 311.053 109.143 311.027 105.249C310.946 100.764 310.142 96.4136 308.64 92.1435C304.402 80.7027 295.981 73.4784 283.402 70.4437C267.712 66.6839 254.222 68.8592 242.958 76.9966C237.272 81.0787 233.142 85.5906 230.594 90.5589C229.36 93.2177 228.663 96.7896 228.502 101.248C228.368 106.941 229.816 110.164 232.873 110.889C235.234 111.453 238.05 111.158 241.322 110.03C242.663 109.6 245.747 108.257 250.601 106.001C259.264 101.973 266.506 100.657 272.325 102.053C277.77 103.369 283.08 106.404 288.257 111.158C293.379 115.911 297.161 118.57 299.601 119.161C302.176 119.778 303.946 119.913 304.939 119.59C306.628 119.053 308.157 117.281 309.552 114.3V114.327Z" fill="#8E2D1C"/>
<path fill-rule="evenodd" clip-rule="evenodd" d="M467.414 151.281C461.808 151.281 455.586 152.999 448.747 156.41C441.962 159.821 437.295 161.54 434.801 161.54C432.146 161.54 430.456 161.271 429.678 160.707C428.364 159.794 427.693 157.726 427.693 154.476C427.693 152.14 428.525 149.078 430.214 145.292C432.226 140.968 434.827 136.886 438.073 133.099C446.923 122.974 457.812 117.898 470.766 117.898C486.885 117.898 498.418 123.162 505.364 133.717C508.877 139.007 510.728 144.379 510.969 149.803C510.969 152.677 510.084 156.303 508.314 160.68C505.981 166.239 503.245 169.032 500.107 169.032C497.693 169.032 495.199 168.093 492.651 166.213C491.605 165.487 489.326 163.446 485.812 160.116C479.51 154.181 473.395 151.227 467.414 151.227V151.281Z" fill="#79B7C7"/>
<path fill-rule="evenodd" clip-rule="evenodd" d="M448.747 149.884C441.962 153.295 437.295 155.014 434.801 155.014C432.146 155.014 430.456 154.745 429.678 154.181C428.364 153.268 427.693 151.2 427.693 147.951C427.693 145.614 428.525 142.553 430.214 138.766C432.226 134.415 434.827 130.36 438.073 126.573C446.923 116.448 457.812 111.373 470.766 111.373C486.885 111.373 498.418 116.636 505.364 127.191C508.877 132.481 510.728 137.853 510.969 143.278C510.969 146.151 510.084 149.777 508.314 154.154C505.981 159.714 503.245 162.507 500.107 162.507C497.693 162.507 495.199 161.567 492.651 159.714C491.605 158.988 489.326 156.947 485.812 153.617C479.51 147.682 473.395 144.728 467.414 144.728C461.808 144.728 455.586 146.447 448.747 149.857V149.884Z" fill="#8E2D1C"/>
<path fill-rule="evenodd" clip-rule="evenodd" d="M282.249 195.566C278.199 199.138 273.318 200.937 267.605 200.937C261.892 200.937 257.038 199.138 252.961 195.566C248.912 191.994 246.873 187.697 246.873 182.675C246.873 177.653 248.912 173.356 252.961 169.784C257.011 166.212 261.892 164.413 267.605 164.413C273.318 164.413 278.172 166.212 282.249 169.784C286.299 173.356 288.337 177.653 288.337 182.675C288.337 187.697 286.299 191.994 282.249 195.566Z" fill="url(#paint8_radial_135_75)"/>
<path fill-rule="evenodd" clip-rule="evenodd" d="M284.046 183.347C284.046 187.053 282.383 190.195 279.057 192.8C275.732 195.405 271.709 196.694 267.015 196.694C262.322 196.694 258.325 195.405 255.053 192.8C251.728 190.195 250.065 187.053 250.065 183.347C250.065 179.64 251.728 176.471 255.053 173.839C258.325 171.234 262.322 169.945 267.015 169.945C271.709 169.945 275.732 171.234 279.057 173.839C282.383 176.498 284.046 179.667 284.046 183.347Z" fill="white"/>
<path fill-rule="evenodd" clip-rule="evenodd" d="M464.624 219.119C460.709 222.691 455.988 224.49 450.463 224.49C444.939 224.49 440.245 222.691 436.303 219.119C432.387 215.547 430.402 211.25 430.402 206.228C430.402 201.206 432.36 196.909 436.303 193.337C440.218 189.765 444.939 187.966 450.463 187.966C455.988 187.966 460.682 189.765 464.624 193.337C468.54 196.909 470.498 201.206 470.498 206.228C470.498 211.25 468.54 215.547 464.624 219.119Z" fill="url(#paint9_radial_135_75)"/>
<path fill-rule="evenodd" clip-rule="evenodd" d="M438.85 197.527C442.122 194.922 446.118 193.633 450.812 193.633C455.505 193.633 459.528 194.922 462.854 197.527C466.18 200.186 467.843 203.355 467.843 207.034C467.843 210.713 466.18 213.882 462.854 216.487C459.528 219.092 455.505 220.382 450.812 220.382C446.118 220.382 442.122 219.092 438.85 216.487C435.525 213.882 433.862 210.74 433.862 207.034C433.862 203.328 435.525 200.159 438.85 197.527Z" fill="white"/>
<path fill-rule="evenodd" clip-rule="evenodd" d="M338.705 245.384C333.26 245.197 327.092 245.304 320.199 245.653H309.444C305.555 246.647 302.632 249.601 300.728 254.516C299.279 258.329 298.555 263.056 298.555 268.696C298.555 275.974 299.95 281.587 302.766 285.588C305.663 289.67 309.766 291.711 315.023 291.711C317.571 291.711 319.797 290.986 321.701 289.536C323.337 288.274 325.188 286.045 327.279 282.849C327.655 282.849 327.816 282.661 327.816 282.312C329.801 287.119 332.67 290.261 336.398 291.711C338.839 292.624 343.211 293.081 349.46 293.081C356.352 293.081 362.253 290.906 367.161 286.528C372.525 281.721 375.958 275.222 377.513 267.031C379.069 258.759 374.375 253.119 363.486 250.138C352.517 247.05 344.256 245.465 338.705 245.358V245.384ZM347.287 313.25C343.935 315.425 340.126 319.158 335.862 324.422C331.329 330.062 327.923 333.741 325.643 335.46C321.46 338.924 316.739 340.643 311.483 340.643C308.13 340.643 305.368 339.005 303.168 335.728C301.613 333.365 300.862 331.27 300.862 329.471C300.862 327.833 301.184 326.651 301.827 325.926C302.471 325.281 303.41 324.986 304.697 324.986C305.421 324.986 305.958 325.12 306.333 325.389C306.869 325.765 307.594 326.571 308.506 327.833V330.572C307.969 330.921 307.325 331.109 306.601 331.109C306.414 331.109 306.279 331.029 306.199 330.841C305.931 330.492 305.555 330.062 305.099 329.605C305.099 331.888 305.958 333.473 307.674 334.386C308.666 335.03 309.954 335.352 311.483 335.352C314.111 335.352 316.551 332.989 318.831 328.262C320.735 324.18 321.701 320.958 321.701 318.594C321.701 315.049 319.743 312.417 315.854 310.699C310.41 308.98 306.145 307.422 303.061 306.052C290.536 300.413 284.287 287.28 284.287 266.655C284.287 258.195 286.004 250.111 289.463 242.403C291.636 237.677 293.996 234.535 296.544 233.004C311.161 231.097 324.732 233.46 337.256 240.094C358.847 236.925 375.448 237.784 387.088 242.672C398.781 247.667 404.655 255.16 404.655 265.151C404.655 271.14 402.107 281.13 397.038 295.149C394.329 301.782 389.636 305.542 383.011 306.455C376.306 307.288 370.218 307.718 364.774 307.825C358.149 307.906 352.329 309.732 347.341 313.277L347.287 313.25Z" fill="#8E2D1C"/>
<path fill-rule="evenodd" clip-rule="evenodd" d="M534.517 659.667C571.395 659.667 602.828 661.037 628.843 663.803C654.939 666.569 668 669.926 668 673.82C668 677.714 654.939 681.071 628.843 683.837C602.828 686.604 571.368 688 534.517 688C497.667 688 466.153 686.604 440.057 683.837C414.042 681.071 401.034 677.741 401.034 673.82C401.034 669.899 414.042 666.569 440.057 663.803C466.153 661.037 497.64 659.667 534.517 659.667Z" fill="url(#paint10_radial_135_75)"/>
<path fill-rule="evenodd" clip-rule="evenodd" d="M378.05 432.947C378.854 432.759 379.82 432.545 380.919 432.276L381.59 440.601L384.996 439.796L384.728 431.336C387.732 430.503 391.299 429.563 395.483 428.462L396.287 436.922L400.096 436.385L399.961 427.254C403.958 426.153 407.578 425.213 410.85 424.38L411.387 432.544L416.697 431.739L416.161 423.145C420.961 421.963 424.636 421.157 427.184 420.701L428.686 431.739L434.13 430.235L433.594 419.466C436.034 418.928 439.548 418.203 444.08 417.29L445.582 428.328L449.659 427.227V416.189C452.931 415.545 456.659 414.819 460.816 414.014L461.352 424.38L465.858 423.575L465.322 413.208C469.13 412.402 472.751 411.758 476.211 411.301L476.747 423.575L483.291 422.339L482.889 410.63C486.804 410.281 490.506 410.093 494.046 410.093V422.769L499.49 421.534L500.295 410.093C503.916 410.173 507.241 410.281 510.245 410.361L509.709 420.996L513.919 421.265L515.153 410.63C518.05 410.898 520.517 411.167 522.502 411.436C522.689 411.516 522.904 411.57 523.172 411.57L523.306 421.507L525.211 421.238L525.747 412.241C527.007 412.51 528.375 412.913 529.824 413.477L532.747 414.497L532.532 423.145L534.571 423.548V415.222C534.839 415.249 535.563 415.491 536.743 415.974C537.735 416.323 538.781 416.726 539.881 417.129C540.686 420.862 541.705 424.353 542.885 427.63C542.617 427.549 542.349 427.496 542.08 427.496C541.437 427.308 540.847 427.173 540.31 427.093L538.057 418.848L537.038 418.499L537.306 426.394C537.119 426.368 536.931 426.341 536.77 426.314C534.356 425.884 532.184 425.535 530.226 425.293L530.145 416.646L528.161 415.491L527.624 424.891H527.356C525.452 424.622 523.36 424.434 521.107 424.353L520.705 414.685L517.701 414.417L517.299 424.219C515.475 424.139 513.517 424.085 511.452 424.085C510.004 424.085 508.502 424.139 506.973 424.219L507.107 414.417H502.628L502.896 424.353C499.437 424.541 495.735 424.864 491.739 425.32L491.069 414.417L486.697 414.148V425.884C482.808 426.341 478.624 426.878 474.172 427.522L473.073 418.123L468.862 419.492L469.801 428.221C468.433 428.409 467.038 428.597 465.59 428.758C463.605 429.107 461.647 429.483 459.743 429.859L457.973 418.955L455.398 419.922H453.762L454.03 430.826C450.034 431.47 446.494 432.061 443.41 432.598L440.969 423.333H438.099L438.368 433.431C435.203 433.968 432.977 434.344 431.689 434.532C429.705 434.8 427.559 435.123 425.306 435.499L423.67 425.535L419.862 426.206L421.096 436.304C417.287 436.949 413.157 437.755 408.705 438.748L407.203 429.751L404.065 430.718L404.601 439.715C401.329 440.36 397.896 441.112 394.249 442.025C393.981 442.105 393.712 442.213 393.444 442.293L391.808 433.565L389.233 433.834L389.502 443.233C385.05 444.334 381.509 445.194 378.881 445.811L378.076 433.001L378.05 432.947Z" fill="url(#paint11_linear_135_75)"/>
<path fill-rule="evenodd" clip-rule="evenodd" d="M214.019 432.41C214.555 432.222 215.145 432.061 215.789 431.873L216.325 444.012L216.862 443.609L218.766 442.938V431.363C221.046 430.987 223.62 430.826 226.517 430.826L227.321 442.266L230.594 442.132L230.325 430.96C231.318 430.96 232.364 431.014 233.463 431.094C235.287 431.175 236.95 431.309 238.505 431.497L239.444 443.206H242.582V442.266L241.348 431.766C244.889 432.115 247.705 432.544 249.797 433.001L252.8 445.409L255.804 445.811L255.67 444.307L255.536 444.173L253.364 433.941C254.517 434.344 255.724 434.827 256.958 435.364L257.306 440.601L259.345 450.833C255.804 449.571 253.82 448.873 253.364 448.792C252.559 448.604 251.459 448.443 250.092 448.255L247.517 437.62L244.245 437.217L245.479 447.584C244.299 447.396 243.038 447.235 241.67 447.047C239.766 446.778 238.13 446.59 236.762 446.51L236.226 435.606L232.685 435.338L233.088 446.107C232.283 446.026 231.693 445.973 231.318 445.973C228.958 445.973 226.678 446.107 224.505 446.375L223.701 435.203L221.528 436.17V446.805C219.168 447.262 216.996 447.852 214.984 448.578L214.18 437.271L214.046 437.003V435.633L212.276 437.003L213.08 449.276C211.176 450.082 209.272 451.102 207.367 452.284L206.697 440.145L204.659 441.514L205.597 453.519C204.873 453.976 204.203 454.432 203.559 454.889C202.647 449.894 201.843 444.764 201.118 439.473L203.023 448.47L202.352 437.835C204.176 436.734 206.026 435.794 207.931 434.962L209.03 448.04L209.567 447.638V447.503L210.371 446.966L209.701 434.156C211.149 433.511 212.597 432.974 214.046 432.518L214.019 432.41Z" fill="#FF9900"/>
<path fill-rule="evenodd" clip-rule="evenodd" d="M546.962 230.13C546.988 229.969 547.042 229.835 547.096 229.727C548.759 228.545 550.287 227.955 551.735 227.955C555.732 227.955 557.716 229.405 557.716 232.305C557.716 235.206 556.858 237.703 555.142 239.53C553.506 241.168 551.601 241.973 549.429 241.973C547.713 241.973 546.667 241.92 546.291 241.839C545.567 241.571 545.191 240.98 545.191 240.067C545.191 238.885 546.291 237.945 548.463 237.193C550.555 236.549 551.601 235.958 551.601 235.421C551.601 234.507 550.797 233.702 549.161 232.977C547.525 232.332 546.72 231.795 546.72 231.338C546.72 231.15 546.801 230.748 546.988 230.103L546.962 230.13Z" fill="#5396A7"/>
<path fill-rule="evenodd" clip-rule="evenodd" d="M257.145 188.503C256.555 189.148 255.804 189.47 254.893 189.47C253.981 189.47 253.23 189.148 252.586 188.503C251.996 187.912 251.701 187.16 251.701 186.247C251.701 185.334 251.996 184.582 252.586 183.938C253.23 183.347 254.007 183.051 254.893 183.051C255.778 183.051 256.529 183.347 257.145 183.938C257.789 184.582 258.111 185.361 258.111 186.247C258.111 187.133 257.789 187.885 257.145 188.503Z" fill="#4C3F3F"/>
<path fill-rule="evenodd" clip-rule="evenodd" d="M440.916 211.68C440.326 212.324 439.575 212.647 438.69 212.647C437.805 212.647 437.027 212.324 436.383 211.68C435.793 211.089 435.498 210.337 435.498 209.424C435.498 208.511 435.793 207.759 436.383 207.114C437.027 206.523 437.805 206.228 438.69 206.228C439.575 206.228 440.326 206.523 440.916 207.114C441.559 207.759 441.881 208.538 441.881 209.424C441.881 210.31 441.559 211.062 440.916 211.68Z" fill="#4C3F3F"/>
<path fill-rule="evenodd" clip-rule="evenodd" d="M207.877 192.451C207.931 192.316 207.958 192.155 207.984 192.021C207.207 190.141 206.241 188.825 205.007 188.046C201.628 185.925 199.161 186.086 197.632 188.53C196.023 191.054 195.486 193.552 195.969 196.023C196.479 198.278 197.659 199.997 199.509 201.152C200.958 202.065 201.87 202.602 202.218 202.71C202.969 202.871 203.613 202.549 204.096 201.797C204.712 200.803 204.31 199.406 202.862 197.634C201.44 195.969 200.877 194.921 201.172 194.465C201.655 193.686 202.781 193.444 204.552 193.686C206.268 194.008 207.26 194.008 207.502 193.606C207.609 193.444 207.743 193.068 207.931 192.424L207.877 192.451Z" fill="#5396A7"/>
<path fill-rule="evenodd" clip-rule="evenodd" d="M620.448 510.696C616.264 508.816 613.019 507.419 610.686 506.453C611.785 504.922 612.643 503.471 613.26 502.156C614.977 502.424 616.532 502.558 617.954 502.558C619.965 502.558 621.95 502.102 623.908 501.189C626.375 500.007 627.609 498.449 627.609 496.489C627.609 494.985 626.67 494.233 624.766 494.233C623.72 494.233 623.211 494.555 623.211 495.227C623.211 495.683 623.264 495.952 623.398 496.005H623.881C624.203 496.005 624.391 495.979 624.471 495.898C624.525 495.898 624.632 495.737 624.766 495.415C625.222 496.14 625.437 496.811 625.437 497.456C625.437 497.993 624.766 498.611 623.398 499.255C622.03 499.9 620.797 500.276 619.697 500.383C618.597 500.49 616.452 500.544 613.287 500.571C610.096 500.625 607.494 500.356 605.429 499.792C604.088 499.416 602.881 498.906 601.808 498.288C597.437 495.683 595.264 490.957 595.264 484.162C595.264 479.274 596.444 474.709 598.778 470.465C599.502 469.149 600.521 467.968 601.808 466.893C604.705 464.53 608.996 462.758 614.735 461.603C623.076 459.938 630.747 461.683 637.774 466.84C644.827 471.996 648.019 477.904 647.402 484.592C646.758 491.279 644.64 496.489 641.046 500.195C638.578 502.746 634.636 504.949 629.218 506.855C628.467 507.124 627.77 507.366 627.126 507.58C624.364 508.682 622.111 509.729 620.394 510.696H620.448Z" fill="url(#paint12_radial_135_75)"/>
<path fill-rule="evenodd" clip-rule="evenodd" d="M620.448 510.696C617.364 512.442 615.916 513.972 616.157 515.288C616.506 517.329 616.854 518.914 617.176 520.042C617.444 521.089 617.579 521.841 617.579 522.298C617.579 522.942 617.391 523.721 616.988 524.634C616.479 525.87 615.782 526.487 614.95 526.487H614.28C614.28 526.487 614.467 526.326 614.467 526.004C615.245 525.225 615.647 524.607 615.647 524.151C615.647 522.486 614.467 521.116 612.08 520.042C611.893 519.934 611.678 519.827 611.437 519.746C608.567 518.699 607.146 517.034 607.146 514.751C607.146 512.468 608.057 510.078 609.881 507.607C610.176 507.205 610.444 506.829 610.713 506.426C613.046 507.393 616.291 508.816 620.475 510.669L620.448 510.696Z" fill="#8CC5D5"/>
<path fill-rule="evenodd" clip-rule="evenodd" d="M206.134 357.992C207.502 358.072 208.896 357.938 210.345 357.589C210.425 357.132 210.532 356.622 210.613 356.085C210.881 354.286 211.069 352.621 211.149 351.17V350.204C211.149 348.941 210.935 346.739 210.479 343.651C209.218 343.463 207.984 343.194 206.804 342.845C207.073 339.488 207.341 335.97 207.609 332.344C207.689 331.995 207.797 331.619 207.877 331.243C208.065 330.706 208.333 330.142 208.682 329.605C209.218 328.799 209.915 328.423 210.72 328.504H211.122C211.31 328.504 211.39 328.558 211.39 328.638C211.766 328.826 211.981 329.041 212.061 329.31C212.329 329.766 212.651 329.981 213 329.981C213.643 334.52 214.18 339.166 214.636 343.892C214.716 345.531 214.85 347.223 215.038 348.941C215.574 357.67 215.816 366.666 215.709 375.932C215.628 384.553 215.199 390.917 214.475 395.026C214.207 396.396 213.938 397.524 213.643 398.437C213.107 399.699 212.517 400.398 211.873 400.478C210.881 400.586 209.969 400.075 209.138 398.974C208.682 398.169 208.279 397.121 207.904 395.832C205.919 389.575 205.276 376.925 206 357.938L206.134 357.992Z" fill="#7BAFBE"/>
<path fill-rule="evenodd" clip-rule="evenodd" d="M188.299 331.136L190.873 351.842C190.069 351.385 189.291 350.875 188.567 350.338L187.199 329.9C187.574 330.276 187.923 330.679 188.299 331.136Z" fill="#72B4C6"/>
<path fill-rule="evenodd" clip-rule="evenodd" d="M190.873 351.842L188.299 331.136C188.567 331.404 188.835 331.727 189.103 332.076C189.908 332.801 190.793 333.58 191.678 334.385C196.586 338.575 201.628 341.395 206.778 342.845C207.958 343.194 209.191 343.49 210.452 343.651C210.908 346.739 211.122 348.914 211.122 350.204V351.17C211.042 352.621 210.854 354.259 210.586 356.085C210.505 356.622 210.398 357.132 210.318 357.589C208.869 357.965 207.448 358.099 206.107 357.992C204.391 357.992 202.513 357.67 200.528 357.025C197.793 356.031 194.896 354.527 191.812 352.54C191.732 352.54 191.678 352.486 191.678 352.406C191.41 352.218 191.142 352.057 190.873 351.869V351.842Z" fill="#90C8D8"/>
<path fill-rule="evenodd" clip-rule="evenodd" d="M188.942 349.532L190.444 373.703L66.831 441.488L49.8272 443.556L44.7851 418.821L13.3789 423.306L0.290771 246.163L20.8617 220.328L30.4096 219.388C28.5322 223.389 27.5935 226.746 27.5935 229.512C27.5935 231.016 28.7199 232.064 30.946 232.708C35.1835 236.71 38.9919 236.092 42.3444 230.828C42.7199 230.211 43.149 229.593 43.6586 228.948C44.1682 228.196 44.651 227.444 45.1605 226.692C45.1605 227.444 45.2946 228.116 45.536 228.76C46.1529 231.258 47.1452 233.514 48.5399 235.501C51.0341 238.858 54.0379 240.55 57.5245 240.55H57.7123C60.3406 242.296 62.8885 241.678 65.3828 238.67C66.5092 237.301 67.3138 235.743 67.8234 233.997C68.4402 232.01 68.9498 229.996 69.3253 228.008C70.2104 228.626 71.1222 228.948 72.1414 228.948C73.6433 228.948 74.8234 228.76 75.7084 228.384L78.7123 229.136C80.2142 227.632 81.2602 226.021 81.9038 224.275C82.7889 221.402 82.3866 218.206 80.7774 214.715V214.527L84.3177 214.151L92.9268 213.399C93.1682 214.392 93.8119 215.332 94.8042 216.219L95.9307 216.407C99.6586 219.522 103.896 220.14 108.643 218.286C109.153 218.045 109.716 217.776 110.333 217.534C113.578 215.923 115.563 213.775 116.314 211.17L179.153 204.993L188.701 345.047L177.866 339.434L176.551 342.979L189.076 349.532H188.942Z" fill="#EBE5DF"/>
<path fill-rule="evenodd" clip-rule="evenodd" d="M0.263916 246.163L7.18344 213.775L20.8348 220.328L0.263916 246.163ZM49.8271 443.529L50.0149 444.281L13.352 423.306L44.7582 418.821L49.8003 443.556L49.8271 443.529Z" fill="#D8C7B6"/>
<path fill-rule="evenodd" clip-rule="evenodd" d="M95.8232 216.38L99.1757 216.756C101.804 216.756 104.486 216.004 107.222 214.5C108.831 213.506 110.038 212.513 110.789 211.492L116.206 211.116C115.455 213.748 113.471 215.87 110.226 217.481C109.609 217.723 109.045 217.991 108.536 218.233C103.789 220.113 99.5512 219.468 95.8232 216.353V216.38ZM75.6278 228.358C75.8692 228.116 76.1374 227.928 76.3788 227.794C77.1297 227.176 77.6125 226.102 77.8807 224.625C78.0148 223.739 78.0685 222.745 78.0685 221.617C78.0685 220.865 77.8271 219.361 77.3175 217.132C77.1834 216.246 77.0761 215.521 76.942 214.876L80.67 214.5V214.688C82.2792 218.179 82.6547 221.375 81.7964 224.249C81.1796 225.994 80.1068 227.606 78.6048 229.11L75.601 228.358H75.6278ZM57.6853 240.524C60.1795 240.389 62.352 238.214 64.2294 233.971C65.3558 230.721 66.2945 228.17 67.0454 226.29C67.7964 227.042 68.5474 227.606 69.2983 227.982C68.9228 229.969 68.4133 231.983 67.7964 233.971C67.2868 235.716 66.4822 237.274 65.3558 238.644C62.8615 241.652 60.3136 242.269 57.6853 240.524ZM30.9458 232.655C31.4554 232.789 32.1259 232.843 33.0109 232.843C34.1374 232.843 35.9343 231.795 38.4286 229.647C38.5627 229.405 38.7504 229.137 38.9918 228.895C41.486 226.639 43.4171 224.974 44.7849 223.846C44.7849 224.84 44.919 225.78 45.1604 226.666C44.6508 227.418 44.168 228.17 43.6585 228.922C43.1489 229.54 42.7198 230.157 42.3443 230.802C38.965 236.039 35.1834 236.656 30.9458 232.682V232.655Z" fill="#D4C0AC"/>
<path fill-rule="evenodd" clip-rule="evenodd" d="M66.831 441.488L193.636 428.355V429.671L188.942 430.235L173.44 431.739L142.946 434.827L64.3904 442.777L62.3521 442.965L50.0149 444.281L49.8271 443.529L66.831 441.488Z" fill="#BEAF9F"/>
<path fill-rule="evenodd" clip-rule="evenodd" d="M188.567 345.047L188.942 349.532L176.417 342.98L177.731 339.408L188.567 345.047Z" fill="#DECCBB"/>
<path fill-rule="evenodd" clip-rule="evenodd" d="M44.7582 223.873C43.3904 225.001 41.4594 226.692 38.9651 228.921C38.7237 229.163 38.536 229.432 38.4019 229.673C35.9076 231.795 34.1107 232.869 32.9843 232.869C32.0992 232.869 31.4287 232.816 30.9191 232.681C28.6663 232.064 27.5667 230.989 27.5667 229.485C27.5667 226.746 28.5053 223.362 30.3827 219.361C30.9996 217.749 31.8847 216.004 33.0111 214.124C36.7391 207.625 40.172 204.375 43.2831 204.375C44.651 204.375 45.7237 204.563 46.4747 204.939C46.7161 205.073 47.0379 205.261 47.4134 205.503C47.172 205.745 46.9843 206.013 46.8502 206.255C45.6165 208.618 44.9191 212.566 44.785 218.045C44.6509 219.173 44.5973 220.408 44.5973 221.778C44.5973 222.53 44.6509 223.228 44.785 223.846L44.7582 223.873Z" fill="url(#paint13_radial_135_75)"/>
<path fill-rule="evenodd" clip-rule="evenodd" d="M110.789 211.519C110.038 212.512 108.858 213.506 107.222 214.527C104.486 216.031 101.804 216.783 99.1759 216.783L95.8234 216.407L94.697 216.219C93.7046 215.332 93.0878 214.419 92.8196 213.399C92.5782 212.781 92.4441 212.083 92.4441 211.331C92.4441 209.451 93.5705 207.893 95.8234 206.658C98.1835 205.422 101.321 204.778 105.184 204.778C109.555 204.778 111.728 206.147 111.728 208.887C111.728 209.773 111.406 210.632 110.789 211.519Z" fill="url(#paint14_radial_135_75)"/>
<path fill-rule="evenodd" clip-rule="evenodd" d="M80.67 214.527L76.942 214.903C77.0761 215.52 77.1834 216.272 77.3175 217.159C77.8271 219.415 78.0685 220.892 78.0685 221.644C78.0685 222.772 78.0148 223.765 77.8807 224.652C77.6393 226.155 77.1297 227.203 76.3788 227.821C76.1374 227.955 75.8692 228.143 75.6278 228.385C74.7428 228.761 73.5627 228.948 72.0608 228.948C71.0684 228.948 70.1297 228.626 69.2447 228.009C68.4937 227.633 67.7428 227.069 66.9918 226.317L66.8041 226.129C65.8117 225.135 64.873 223.953 63.988 222.557C62.6201 220.569 61.6278 218.555 61.0109 216.568C60.1259 214.204 59.6968 211.814 59.6968 209.451C59.6968 206.336 60.3941 203.838 61.7619 201.958C62.1374 201.206 62.647 200.588 63.2638 200.078C65.0071 198.574 67.1796 197.822 69.8079 197.822C73.4286 197.822 76.9688 200.75 80.4554 206.631C81.716 208.887 82.9497 211.385 84.1834 214.124L80.6431 214.5L80.67 214.527Z" fill="url(#paint15_radial_135_75)"/>
<path fill-rule="evenodd" clip-rule="evenodd" d="M67.0188 226.317C66.2679 228.196 65.3292 230.748 64.2027 233.997C62.3253 238.241 60.1529 240.416 57.6586 240.55H57.4709C53.9843 240.55 50.9805 238.858 48.4862 235.501C47.1184 233.514 46.1261 231.258 45.4824 228.76C45.241 228.143 45.1069 227.444 45.1069 226.693C44.8655 225.806 44.7314 224.893 44.7314 223.873C44.5973 223.255 44.5437 222.557 44.5437 221.805C44.5437 220.435 44.5973 219.173 44.7314 218.072C44.8655 212.566 45.536 208.645 46.7966 206.282C46.9307 206.04 47.1184 205.772 47.3598 205.53C49.1031 202.656 52.1069 201.233 56.3445 201.233L61.7621 201.985C60.3943 203.865 59.697 206.362 59.697 209.478C59.697 211.841 60.1261 214.231 61.0111 216.595C61.628 218.582 62.6203 220.596 63.9882 222.584C64.8732 223.953 65.7851 225.135 66.8043 226.155L66.992 226.343L67.0188 226.317Z" fill="url(#paint16_radial_135_75)"/>
<path fill-rule="evenodd" clip-rule="evenodd" d="M193.636 428.355L66.8311 441.488L190.444 373.676L193.26 421.426L193.448 425.938L193.636 428.355Z" fill="url(#paint17_linear_135_75)"/>
<path fill-rule="evenodd" clip-rule="evenodd" d="M281.042 407.944L176.31 328.209L178.563 325.147L285.226 406.387C285.44 407.139 285.735 407.998 286.191 408.965L297.08 418.365C295.686 417.747 294.264 417.263 292.87 416.941L281.149 408.025L281.069 407.944H281.042Z" fill="#4C3333"/>
<path fill-rule="evenodd" clip-rule="evenodd" d="M414.793 384.418C415.249 381.061 415.463 377.597 415.463 374.052C408.651 370.587 401.544 371.312 394.088 376.227C393.9 379.477 393.391 382.619 392.586 385.707C387.598 384.472 383.172 382.162 379.257 378.832C373.088 373.649 370.004 367.391 370.004 360.033C370.004 352.674 373.088 346.363 379.257 341.072C385.425 335.889 392.908 333.311 401.705 333.311C410.502 333.311 418.011 335.889 424.153 341.072C430.322 346.336 433.406 352.647 433.406 360.033C433.406 367.418 430.322 373.676 424.153 378.832C422.946 379.853 421.712 380.793 420.398 381.625C418.601 382.753 416.724 383.666 414.739 384.418H414.793Z" fill="#90C8D8"/>
<path fill-rule="evenodd" clip-rule="evenodd" d="M414.793 384.418C412.486 401.902 404.172 417.129 389.877 430.074C373.034 445.489 352.49 453.224 328.218 453.251C322.908 449.598 321.218 443.529 323.122 435.042C340.985 433.27 356.567 427.308 369.87 417.129C381.912 408.052 389.475 397.578 392.613 385.707C393.417 382.646 393.9 379.477 394.115 376.227C401.544 371.313 408.678 370.588 415.49 374.052C415.49 377.597 415.276 381.035 414.82 384.418H414.793Z" fill="url(#paint18_radial_135_75)"/>
<path fill-rule="evenodd" clip-rule="evenodd" d="M328.218 453.251C328.03 453.251 327.816 453.331 327.548 453.519C327.253 453.734 326.019 454.03 323.873 454.406C323.096 454.54 322.023 454.647 320.601 454.755C320.092 454.755 319.555 454.808 318.965 454.835C306.655 453.197 295.176 447.02 284.528 436.305C273.854 425.562 272.728 416.136 281.122 408.025L292.843 416.941C294.264 417.29 295.659 417.747 297.053 418.365V414.014C292.467 412.134 288.927 408.67 286.433 403.648V401.956C287.532 401.714 289.222 402.009 291.475 402.842C297.724 406.387 302.686 409.072 306.306 410.872C310.302 412.859 313.574 415.598 316.096 419.063C318.858 422.93 320.816 427.039 321.942 431.39C322.264 432.625 322.505 433.861 322.693 435.15C322.827 435.15 322.988 435.123 323.096 435.069C321.191 443.556 322.881 449.598 328.191 453.278L328.218 453.251Z" fill="url(#paint19_linear_135_75)"/>
<path fill-rule="evenodd" clip-rule="evenodd" d="M281.122 407.998C272.728 416.109 273.854 425.535 284.528 436.278C295.176 447.02 306.655 453.197 318.965 454.808C316.578 454.97 313.521 455.077 309.766 455.158C302.551 455.292 296.034 454.003 290.241 451.263C284.421 448.497 279.808 444.764 276.348 440.011C276.161 439.93 274.551 436.761 271.521 430.53C268.49 424.3 269.08 418.365 273.291 412.752C275.866 409.314 278.467 407.703 281.042 407.918L281.122 407.998ZM297.053 418.365L286.164 408.965C285.735 407.998 285.413 407.139 285.199 406.387C284.421 403.809 284.85 402.332 286.433 401.956V403.648C288.927 408.67 292.467 412.134 297.053 414.014V418.365Z" fill="#63A4B6"/>
<path fill-rule="evenodd" clip-rule="evenodd" d="M337.9 430.96C337.203 430.557 336.184 430.208 334.843 429.94C333.502 429.644 332.027 430.584 330.418 432.733C328.808 434.881 327.95 437.325 327.843 440.091C327.736 442.857 328.004 445.677 328.594 448.605C329.184 451.532 331.544 454.325 335.594 456.93C335.245 457.064 334.87 457.145 334.494 457.199C332.054 457.575 330.444 457.682 329.72 457.548C329.023 457.387 328.031 457.037 326.716 456.447C325.429 455.883 324.195 454.943 323.042 453.654C321.862 452.338 321.004 450.511 320.467 448.202C319.904 445.865 319.743 442.831 319.985 439.071C320.226 435.311 321.191 432.545 322.908 430.745C324.624 428.946 326.502 427.899 328.567 427.603C330.605 427.335 332.697 427.603 334.816 428.409C336.211 428.946 337.257 429.779 337.873 430.933L337.9 430.96Z" fill="url(#paint20_linear_135_75)"/>
<path fill-rule="evenodd" clip-rule="evenodd" d="M337.9 430.96C338.142 431.417 338.329 431.927 338.437 432.464C334.333 433.565 331.919 434.398 331.142 434.989C330.364 435.58 329.988 437.567 329.988 440.978C329.988 444.979 330.364 447.584 331.088 448.82C331.785 450.028 332.643 451.076 333.663 452.015C334.119 452.418 334.521 452.741 334.896 452.955C335.513 452.821 337.31 452.714 340.341 452.687C339 454.916 337.417 456.339 335.567 456.903C331.49 454.298 329.157 451.532 328.567 448.578C327.977 445.651 327.709 442.804 327.816 440.065C327.923 437.298 328.781 434.854 330.391 432.706C332 430.557 333.475 429.617 334.816 429.913C336.157 430.181 337.176 430.531 337.873 430.933L337.9 430.96Z" fill="#683805"/>
<path fill-rule="evenodd" clip-rule="evenodd" d="M560.291 672.772C559.004 672.396 557.743 671.967 556.483 671.483C556.295 671.403 554.927 670.812 552.406 669.711C551.494 669.362 550.69 669.12 549.966 669.039C551.682 667.482 553.506 665.118 555.41 661.949C556.322 660.231 557.234 658.324 558.119 656.229C558.307 655.96 558.441 655.692 558.521 655.423C560.425 655.88 562.383 656.229 564.368 656.524C564.502 656.524 564.663 656.578 564.77 656.605C566.299 656.874 567.854 657.115 569.41 657.276C572.307 657.599 575.257 657.76 578.261 657.76C582.069 657.76 585.69 657.384 589.15 656.659C589.793 656.578 590.41 656.444 591.054 656.256C592.234 655.987 593.36 655.719 594.46 655.45C595.265 657.733 596.284 659.908 597.464 662.003C598.832 664.447 600.414 666.783 602.238 668.959C601.514 668.959 600.521 669.147 599.234 669.496C596.15 670.597 592.019 671.913 586.843 673.444C581.586 674.894 576.356 675.351 571.18 674.813C570.215 674.733 569.276 674.625 568.31 674.464C568.445 672.289 568.632 669.55 568.847 666.22C568.981 664.366 569.088 662.728 569.196 661.305C566.943 660.768 565.172 660.392 563.885 660.15C563.054 663.212 561.847 667.428 560.265 672.826L560.291 672.772Z" fill="#8E2D1C"/>
<path fill-rule="evenodd" clip-rule="evenodd" d="M620.341 641.485H621.012C622.004 641.485 622.862 640.814 623.586 639.444C624.498 637.725 625.276 636.624 625.893 636.168C627.073 635.255 628.602 634.717 630.533 634.529C631.632 634.341 633.671 634.153 636.648 633.992C642.28 633.536 646.276 632.864 648.636 631.951C650.916 631.146 652.579 630.367 653.678 629.642C654.858 628.917 655.717 628.245 656.253 627.601C655.717 630.42 653.115 632.462 648.502 633.724C646.866 634.18 644.828 634.529 642.387 634.825C639.839 635.093 638.498 635.281 638.311 635.362C637.13 635.631 635.441 635.872 633.268 636.033C630.908 636.302 629.138 636.571 627.958 636.839C627.234 637.027 626.644 637.484 626.188 638.209C625.92 638.585 625.544 639.31 625.088 640.384C624.713 641.378 624.418 642.103 624.123 642.559C623.667 643.097 623.077 643.365 622.353 643.365C621.521 643.365 620.904 642.828 620.448 641.727C620.448 641.646 620.395 641.539 620.314 641.458L620.341 641.485ZM549.966 669.013C550.69 669.093 551.494 669.335 552.406 669.684C554.954 670.785 556.322 671.376 556.483 671.457C557.743 671.94 559.004 672.37 560.291 672.746C562.866 673.498 565.548 674.035 568.337 674.384C569.276 674.518 570.242 674.653 571.207 674.733C576.383 675.27 581.613 674.814 586.87 673.363C592.046 671.833 596.176 670.49 599.261 669.416C600.521 669.066 601.54 668.878 602.265 668.878C603.176 668.798 603.659 668.959 603.766 669.416C604.41 670.141 604.571 670.812 604.303 671.457C604.035 671.994 603.311 672.638 602.13 673.363C594.514 677.634 585.609 679.675 575.445 679.487C572.977 679.433 570.563 679.272 568.23 678.949C560.801 678.01 554.096 675.727 548.088 672.128C548.088 671.859 548.035 671.483 547.954 671.027C547.874 670.221 547.82 669.657 547.82 669.389L548.356 669.12C548.705 668.932 549.134 668.852 549.59 668.852C549.671 668.852 549.805 668.905 549.992 668.986L549.966 669.013Z" fill="#5D3A19"/>
<path fill-rule="evenodd" clip-rule="evenodd" d="M568.606 603.726C570.161 604.988 571.958 605.632 574.05 605.632C576.142 605.632 578.1 604.988 579.629 603.726C581.613 604.075 583.705 604.585 585.878 605.23C585.797 605.418 585.69 605.552 585.609 605.632C585.073 606.277 584.242 606.814 583.169 607.271C581.265 608.184 578.958 608.64 576.222 608.64C573.487 608.64 571.153 608.184 569.142 607.271C567.318 606.357 566.379 605.31 566.272 604.128C566.54 604.128 566.782 604.075 566.943 603.994C567.479 603.914 568.042 603.806 568.579 603.726H568.606Z" fill="#794C22"/>
<path fill-rule="evenodd" clip-rule="evenodd" d="M603.579 617.234C585.341 625.586 566.969 625.962 548.464 618.335C547.364 617.879 546.345 617.422 545.326 616.966C551.87 610.144 558.843 605.874 566.299 604.155C566.379 605.337 567.345 606.384 569.169 607.297C571.18 608.211 573.513 608.667 576.249 608.667C578.985 608.667 581.291 608.211 583.195 607.297C584.295 606.841 585.1 606.304 585.636 605.659C585.717 605.579 585.824 605.444 585.904 605.256C587.004 605.605 588.13 606.035 589.31 606.492C590.115 606.76 590.946 607.083 591.751 607.432C596.659 609.526 600.602 612.803 603.605 617.234H603.579Z" fill="url(#paint21_radial_135_75)"/>
<path fill-rule="evenodd" clip-rule="evenodd" d="M579.628 603.726C578.073 604.988 576.222 605.632 574.05 605.632C571.877 605.632 570.134 604.988 568.605 603.726C568.149 603.457 567.774 603.188 567.506 602.893C567.318 602.705 567.184 602.544 567.103 602.356C565.575 600.53 564.797 598.408 564.797 595.937C564.797 593.225 565.709 590.942 567.533 589.116C569.356 587.209 571.529 586.242 574.077 586.242C576.625 586.242 578.931 587.209 580.755 589.116C582.471 590.942 583.329 593.198 583.329 595.937C583.329 597.307 583.142 598.515 582.793 599.617C582.605 599.885 582.471 600.207 582.391 600.557C581.935 601.362 581.398 602.141 580.755 602.866C580.406 603.135 580.031 603.403 579.655 603.699L579.628 603.726Z" fill="url(#paint22_radial_135_75)"/>
<path fill-rule="evenodd" clip-rule="evenodd" d="M656.28 627.601C655.743 628.245 654.885 628.917 653.705 629.642C652.606 630.367 650.943 631.146 648.663 631.951C646.303 632.865 642.307 633.536 636.674 633.993C633.671 634.181 631.632 634.369 630.56 634.53C628.655 634.718 627.1 635.255 625.92 636.168C625.276 636.624 624.525 637.726 623.613 639.444C622.889 640.814 622.031 641.485 621.038 641.485H620.368C620.1 640.68 619.966 639.632 619.966 638.343C620.046 636.786 621.333 635.389 623.774 634.127C626.322 632.865 630.452 632.005 636.165 631.549C641.797 631.092 645.874 630.313 648.422 629.239C649.789 628.702 650.728 628.057 651.291 627.332C651.667 626.876 651.881 626.419 651.962 625.963C652.042 625.882 652.15 625.775 652.23 625.694C652.498 625.049 652.632 624.432 652.632 623.787C652.632 621.343 647.376 620.108 636.835 620.108C630.935 620.108 626.992 620.914 624.981 622.552C622.433 624.378 620.448 626.151 619 627.869C617.552 629.508 616.64 630.421 616.291 630.609C613.395 632.247 610.445 633.885 607.441 635.523C603.713 637.538 599.824 639.149 595.72 640.438C587.728 642.882 579.521 643.983 571.073 643.714C562.625 643.365 554.82 641.297 547.659 637.591C537.763 632.596 528.885 627.466 520.973 622.203C513.437 617.288 504.372 613.931 493.751 612.105C493.107 612.024 492.517 611.89 491.981 611.702L481.092 611.568H480.958C479.054 611.219 477.096 610.843 475.111 610.467C474.467 610.01 474.467 609.527 475.111 608.963C475.567 608.882 476.077 608.775 476.613 608.694H477.284C478.464 608.506 479.697 608.372 480.958 608.291C484.686 607.942 488.36 607.808 491.981 607.888C494.69 607.888 497.425 608.076 500.134 608.425C504.05 608.882 507.885 609.688 511.694 610.869C518.318 613.045 524.996 615.059 531.701 616.858C534.249 617.503 536.797 617.798 539.318 617.798C541.303 617.718 543.314 617.449 545.299 616.993C546.291 617.449 547.337 617.906 548.437 618.362C566.943 625.989 585.314 625.64 603.552 617.261C605.832 617.798 607.87 618.443 609.667 619.168C612.563 620.43 614.843 622.122 616.479 624.217C616.667 624.405 616.801 624.566 616.881 624.754C617.069 625.023 617.203 625.264 617.284 625.425C618.544 623.519 620.556 621.666 623.264 619.839C624.445 619.302 625.356 618.899 626 618.604C626.644 618.335 627.448 618.147 628.441 618.067C630.425 617.986 633.027 617.852 636.192 617.664C638.632 617.583 640.242 617.53 640.966 617.53H643.406C645.391 617.53 647.161 617.664 648.717 617.933C653.812 619.114 656.333 621.934 656.333 626.392C656.333 626.849 656.28 627.252 656.199 627.628L656.28 627.601Z" fill="url(#paint23_radial_135_75)"/>
<path fill-rule="evenodd" clip-rule="evenodd" d="M594.487 655.397C593.387 655.665 592.261 655.934 591.081 656.202C590.437 656.39 589.82 656.525 589.176 656.605C585.717 657.33 582.096 657.706 578.288 657.706C575.284 657.706 572.333 657.545 569.437 657.223C567.881 657.035 566.326 656.82 564.797 656.551C564.663 656.551 564.529 656.498 564.395 656.471C562.41 656.202 560.452 655.826 558.548 655.37C554.364 654.376 550.475 653.006 546.855 651.288C539.399 647.931 532.238 642.828 525.345 636.033C522.797 633.67 519.82 630.984 516.36 627.976C513.008 624.888 508.287 621.612 502.199 618.174C498.31 615.891 492.035 613.85 483.425 612.051C482.701 611.782 481.923 611.594 481.119 611.514L492.008 611.648C492.544 611.836 493.134 611.97 493.778 612.051C504.399 613.877 513.464 617.234 521 622.149C528.885 627.413 537.789 632.542 547.686 637.537C554.847 641.27 562.651 643.311 571.1 643.66C579.548 643.929 587.755 642.855 595.747 640.384C599.824 639.122 603.74 637.484 607.468 635.469C610.471 633.831 613.395 632.193 616.318 630.555C616.667 630.367 617.579 629.454 619.027 627.815C620.475 626.097 622.487 624.324 625.008 622.498C627.019 620.86 630.962 620.054 636.862 620.054C647.376 620.054 652.659 621.289 652.659 623.733C652.659 624.378 652.525 624.995 652.257 625.64C652.176 625.721 652.069 625.828 651.989 625.909C652.069 625.559 652.123 625.183 652.123 624.807C652.123 623.089 650.353 622.068 646.812 621.8C645.632 621.719 644.238 621.665 642.602 621.665C641.046 621.746 640.054 621.8 639.598 621.8C636.782 621.719 634.824 621.665 633.751 621.665C631.927 621.746 630.399 621.988 629.111 622.337C627.019 622.981 624.713 624.619 622.165 627.251C621.173 628.057 620.207 629.078 619.295 630.259C619.563 632.354 619.349 634.583 618.625 636.946C617.176 641.485 612.188 646.265 603.659 651.261C600.763 652.899 597.705 654.269 594.54 655.343L594.487 655.397Z" fill="url(#paint24_radial_135_75)"/>
<path fill-rule="evenodd" clip-rule="evenodd" d="M568.337 674.411C565.575 674.062 562.893 673.525 560.291 672.773C561.847 667.375 563.054 663.158 563.912 660.097C565.199 660.338 566.969 660.714 569.222 661.252C569.115 662.675 569.008 664.313 568.874 666.166C568.659 669.496 568.471 672.236 568.337 674.411Z" fill="white"/>
<path fill-rule="evenodd" clip-rule="evenodd" d="M492.035 610.278C490.318 610.466 488.199 610.547 485.759 610.547C483.318 610.547 481.172 610.44 479.402 610.278C477.659 610.09 476.801 609.849 476.801 609.526C476.801 609.204 477.659 608.962 479.402 608.774C481.172 608.586 483.291 608.506 485.759 608.506C488.226 608.506 490.318 608.613 492.035 608.774C493.805 608.962 494.69 609.204 494.69 609.526C494.69 609.849 493.805 610.09 492.035 610.278Z" fill="#794C22"/>
<path fill-rule="evenodd" clip-rule="evenodd" d="M502.387 609.876C502.387 609.876 502.333 609.768 502.333 609.741C507.59 610.601 512.981 611.997 518.533 613.958C523.602 615.784 526.74 616.858 527.92 617.234C529.582 617.664 531.272 617.986 533.016 618.255C533.337 618.819 533.74 619.517 534.249 620.376C532.157 620 530.092 619.49 528.054 618.872C526.874 618.496 523.789 617.315 518.801 615.327C513.196 613.071 507.751 611.245 502.387 609.876ZM611.491 626.768L604.41 631.414C603.418 628.326 602.318 626.285 601.138 625.291C600.039 624.19 598.724 623.25 597.196 622.417L602.104 620.108C605.215 620.967 608.353 623.196 611.491 626.795V626.768ZM592.583 611.218C591.483 610.117 590.303 609.231 589.042 608.506L589.847 607.539C593.119 608.721 595.962 610.574 598.429 613.125C597.625 613.313 596.525 613.85 595.157 614.763C594.621 613.394 593.763 612.212 592.583 611.218ZM538.943 620.967C538.138 620.108 537.575 619.383 537.253 618.792C537.548 618.792 537.843 618.845 538.138 618.872C539.908 619.033 542.215 619.007 545.084 618.792C545.594 619.033 546.184 619.329 546.855 619.678C547.659 620.081 548.356 620.457 548.973 620.833C547.793 620.94 546.774 620.994 545.916 621.048C543.1 621.209 540.793 621.182 538.97 620.967H538.943Z" fill="white"/>
<path fill-rule="evenodd" clip-rule="evenodd" d="M361.582 260.934C358.9 262.196 356.406 263.647 354.099 265.285C351.793 266.923 347.126 268.347 340.073 269.501C332.992 270.683 326.394 268.535 320.199 263.11C317.758 260.934 315.666 258.705 313.95 256.422L314.62 255.482C315.854 256.315 317.356 257.309 319.099 258.49C325.188 262.384 331.597 264.452 338.356 264.694C341.816 264.828 344.9 264.614 347.609 264.076C349.352 263.754 350.935 263.298 352.383 262.707C353.053 262.411 353.697 262.089 354.287 261.767L354.421 261.686C355.387 261.122 356.245 260.639 356.996 260.182C359.249 258.813 360.643 257.819 361.153 257.255L361.555 260.934H361.582Z" fill="#30798C"/>
<path d="M109.356 277.997C113.311 278.94 116.998 280.63 120.21 282.937C126.53 287.469 131.039 294.353 132.242 302.517C134.647 318.832 122.919 334.09 106.049 336.584C89.1706 339.079 73.5429 327.866 71.137 311.55C69.9333 303.386 72.2673 295.491 77.0045 289.323C82.1203 282.672 83.9879 274.665 82.8723 267.099C82.2815 263.092 80.883 259.397 78.8758 256.132C92.1681 262.184 97.7778 277.583 91.4001 290.523C90.8003 291.741 90.62 293.046 90.807 294.284C91.1188 296.361 92.4556 298.244 94.562 299.205C97.9171 300.731 101.944 299.319 103.554 296.052C104.333 294.473 104.563 292.788 104.342 291.184C103.956 288.403 102.187 285.867 99.3757 284.588C107.389 286.501 112.861 293.135 113.502 300.689C118.47 293.248 116.75 283.304 109.356 277.997Z" fill="#F25430"/>
<path d="M106.207 263.96C108.297 259.724 106.46 254.679 102.107 252.697C102.422 254.841 101.892 257.111 100.444 258.996C97.5454 262.765 98.3274 268.068 102.19 270.839C103.2 271.563 104.376 272.067 105.633 272.309C104.751 269.663 104.862 266.69 106.207 263.96Z" fill="#F25430"/>
<path d="M59.8295 365.851L64.8413 365.427L66.4547 355.572L69.6131 365.025L74.6516 364.599L77.4246 349.384L73.1326 349.746L71.9443 360.505L68.5207 350.135L63.6955 350.543L62.0852 361.391L59.0837 350.932L54.5251 351.317L59.8295 365.851ZM80.4154 364.113L84.974 363.728L83.7216 348.852L79.163 349.237L80.4154 364.113ZM81.3254 347.497C82.9249 347.362 83.9259 346.177 83.8114 344.817C83.6947 343.431 82.5097 342.43 80.9102 342.566C79.2841 342.703 78.2831 343.888 78.3998 345.274C78.5143 346.634 79.6993 347.635 81.3254 347.497ZM99.9901 358.111C99.4433 352.573 91.5339 354.932 91.3341 352.559C91.2735 351.839 91.8241 351.363 92.8904 351.273C94.17 351.165 94.9992 351.766 95.2178 352.768L99.4298 352.413C98.8897 349.505 96.5775 347.552 92.7387 347.876C88.8466 348.205 86.8623 350.467 87.0755 352.999C87.5357 358.464 95.4939 356.047 95.6959 358.447C95.752 359.113 95.1837 359.698 94.0108 359.797C92.7578 359.903 91.7664 359.288 91.5723 358.258L87.067 358.638C87.5227 361.499 90.3748 363.487 94.3469 363.152C98.0791 362.836 100.208 360.697 99.9901 358.111ZM103.143 362.194L107.701 361.809L107.021 353.732C106.851 351.706 107.876 350.492 109.609 350.345C111.342 350.199 112.555 351.224 112.726 353.25L113.406 361.328L117.938 360.945L117.206 352.254C116.87 348.256 114.406 346.101 111.021 346.387C108.968 346.56 107.416 347.577 106.617 348.933L106.04 342.082L101.482 342.467L103.143 362.194ZM121.106 360.678L125.664 360.293L124.003 340.566L119.445 340.95L121.106 360.678ZM128.968 360.014L133.526 359.629L132.274 344.754L127.715 345.139L128.968 360.014ZM129.878 343.399C131.477 343.264 132.478 342.079 132.364 340.719C132.247 339.333 131.062 338.332 129.463 338.467C127.837 338.604 126.836 339.789 126.952 341.176C127.067 342.535 128.252 343.536 129.878 343.399ZM148.543 354.012C147.996 348.474 140.086 350.833 139.887 348.461C139.826 347.741 140.377 347.265 141.443 347.175C142.723 347.067 143.552 347.668 143.77 348.67L147.982 348.314C147.442 345.406 145.13 343.454 141.291 343.778C137.399 344.106 135.415 346.368 135.628 348.901C136.088 354.366 144.046 351.949 144.248 354.348C144.304 355.014 143.736 355.599 142.563 355.698C141.31 355.804 140.319 355.19 140.125 354.159L135.62 354.539C136.075 357.401 138.927 359.388 142.899 359.053C146.632 358.738 148.76 356.598 148.543 354.012ZM151.979 352.863C152.305 356.729 154.574 357.853 157.667 357.592L159.986 357.396L159.66 353.53L158.034 353.668C157.021 353.753 156.617 353.411 156.543 352.532L156.04 346.56L159.026 346.308L158.707 342.522L155.721 342.774L155.416 339.149L150.857 339.534L151.163 343.159L149.35 343.312L149.668 347.098L151.481 346.945L151.979 352.863ZM100.239 382.51L104.797 382.126L103.545 367.25L98.9862 367.635L100.239 382.51ZM101.149 365.895C102.748 365.76 103.749 364.575 103.635 363.215C103.518 361.829 102.333 360.828 100.733 360.963C99.1073 361.101 98.1063 362.286 98.223 363.672C98.3375 365.032 99.5225 366.032 101.149 365.895ZM119.813 376.509C119.267 370.97 111.357 373.33 111.157 370.957C111.097 370.237 111.647 369.761 112.714 369.671C113.993 369.563 114.822 370.164 115.041 371.166L119.253 370.81C118.713 367.903 116.401 365.95 112.562 366.274C108.67 366.603 106.686 368.864 106.899 371.397C107.359 376.862 115.317 374.445 115.519 376.844C115.575 377.511 115.007 378.096 113.834 378.195C112.581 378.301 111.59 377.686 111.396 376.655L106.89 377.036C107.346 379.897 110.198 381.885 114.17 381.549C117.902 381.234 120.031 379.095 119.813 376.509ZM73.668 393.307C75.1876 393.178 76.5457 394.003 76.6826 395.63L70.9777 396.111C71.1052 394.436 72.1752 393.433 73.668 393.307ZM81.3334 399.211L76.4816 399.62C76.1757 400.451 75.5098 401.152 74.2302 401.26C72.764 401.384 71.4881 400.579 71.1643 398.646L81.4811 397.775C81.4962 397.317 81.4847 396.862 81.4488 396.435C81.0673 391.903 77.7592 389.283 73.4139 389.65C68.9886 390.023 66.1431 393.217 66.5404 397.936C66.9376 402.654 70.3302 405.321 74.7022 404.952C78.4077 404.639 80.8583 402.177 81.3334 399.211ZM105 402.18L109.532 401.797L108.801 393.106C108.464 389.108 105.894 386.962 102.215 387.272C100.056 387.455 98.2905 388.812 97.4366 390.468C96.2732 388.767 94.3774 387.934 92.1381 388.123C90.192 388.287 88.7421 389.242 87.9634 390.516L87.8063 388.65L83.2477 389.035L84.5001 403.91L89.0587 403.525L88.3786 395.448C88.2148 393.502 89.2446 392.341 90.9774 392.195C92.7102 392.048 93.9196 393.02 94.0835 394.966L94.7635 403.044L99.2955 402.661L98.6154 394.584C98.4515 392.638 99.4814 391.477 101.214 391.33C102.947 391.184 104.156 392.156 104.32 394.102L105 402.18ZM116.204 388.374L116.027 386.268L111.468 386.652L113.317 408.619L117.876 408.234L117.104 399.064C118.036 400.247 119.696 401.154 121.882 400.969C125.534 400.661 128.189 397.43 127.794 392.738C127.399 388.046 124.246 385.359 120.594 385.667C118.408 385.852 116.92 386.998 116.204 388.374ZM123.155 393.13C123.355 395.502 121.921 396.966 120.188 397.112C118.482 397.256 116.826 396.08 116.626 393.708C116.426 391.335 117.863 389.898 119.569 389.754C121.302 389.608 122.955 390.757 123.155 393.13ZM131.098 394.768C131.423 398.634 133.693 399.758 136.785 399.497L139.104 399.301L138.779 395.435L137.153 395.573C136.14 395.658 135.735 395.316 135.661 394.437L135.158 388.465L138.144 388.213L137.825 384.427L134.84 384.679L134.534 381.054L129.976 381.439L130.281 385.064L128.468 385.217L128.787 389.003L130.6 388.85L131.098 394.768ZM148.026 392.936L143.804 383.923L138.712 384.353L145.973 398.211L143.198 406.07L148.103 405.656L155.586 382.928L150.655 383.344L148.026 392.936Z" fill="#464646"/>
</g>
<defs>
<radialGradient id="paint0_radial_135_75" cx="0" cy="0" r="1" gradientUnits="userSpaceOnUse" gradientTransform="translate(407.61 359.077) scale(229.46 229.769)">
<stop stop-color="#F25430"/>
<stop offset="1" stop-color="#F7F7F7"/>
</radialGradient>
<linearGradient id="paint1_linear_135_75" x1="412.433" y1="33.1408" x2="512.498" y2="33.1408" gradientUnits="userSpaceOnUse">
<stop stop-color="#F29C50"/>
<stop offset="1" stop-color="#F25430"/>
</linearGradient>
<radialGradient id="paint2_radial_135_75" cx="0" cy="0" r="1" gradientUnits="userSpaceOnUse" gradientTransform="translate(342.111 197.554) scale(240.119 240.443)">
<stop offset="0.64" stop-color="#90C8D8"/>
<stop offset="0.83" stop-color="#78B6C7"/>
<stop offset="1" stop-color="#BFE5F0"/>
</radialGradient>
<linearGradient id="paint3_linear_135_75" x1="417.931" y1="15.5498" x2="515.395" y2="15.5498" gradientUnits="userSpaceOnUse">
<stop stop-color="#CC0000"/>
<stop offset="1" stop-color="#690000"/>
</linearGradient>
<linearGradient id="paint4_linear_135_75" x1="355.574" y1="386.191" x2="548.732" y2="386.191" gradientUnits="userSpaceOnUse">
<stop offset="0.53" stop-color="#F29C50"/>
<stop offset="1" stop-color="#F25430"/>
</linearGradient>
<linearGradient id="paint5_linear_135_75" x1="260.9" y1="384.07" x2="179.903" y2="388.355" gradientUnits="userSpaceOnUse">
<stop offset="0.53" stop-color="#F29C50"/>
<stop offset="1" stop-color="#F25430"/>
</linearGradient>
<radialGradient id="paint6_radial_135_75" cx="0" cy="0" r="1" gradientUnits="userSpaceOnUse" gradientTransform="translate(353.67 371.071) scale(170.655 170.885)">
<stop offset="0.71" stop-color="#90B2D8"/>
<stop offset="1" stop-color="#78B6C7"/>
</radialGradient>
<radialGradient id="paint7_radial_135_75" cx="0" cy="0" r="1" gradientUnits="userSpaceOnUse" gradientTransform="translate(478.624 517.034) scale(85.1533 85.2682)">
<stop offset="0.71" stop-color="#78B6C7"/>
<stop offset="1" stop-color="#9FD4E4"/>
</radialGradient>
<radialGradient id="paint8_radial_135_75" cx="0" cy="0" r="1" gradientUnits="userSpaceOnUse" gradientTransform="translate(267.686 181.803) scale(20.8278 18.4308)">
<stop offset="0.68" stop-color="white"/>
<stop offset="1" stop-color="#90C8D8"/>
</radialGradient>
<radialGradient id="paint9_radial_135_75" cx="0" cy="0" r="1" gradientUnits="userSpaceOnUse" gradientTransform="translate(449.139 205.401) scale(20.1013 18.4308)">
<stop offset="0.68" stop-color="white"/>
<stop offset="1" stop-color="#90C8D8"/>
</radialGradient>
<radialGradient id="paint10_radial_135_75" cx="0" cy="0" r="1" gradientUnits="userSpaceOnUse" gradientTransform="translate(533.496 659.033) scale(133.767 14.4029)">
<stop offset="0.64" stop-color="#E5E5E5"/>
<stop offset="1" stop-color="#F7F7F7"/>
</radialGradient>
<linearGradient id="paint11_linear_135_75" x1="378.05" y1="427.898" x2="542.885" y2="427.898" gradientUnits="userSpaceOnUse">
<stop stop-color="#FFA318"/>
<stop offset="0.61" stop-color="#FFE6BF"/>
<stop offset="1" stop-color="#FF9900"/>
</linearGradient>
<radialGradient id="paint12_radial_135_75" cx="0" cy="0" r="1" gradientUnits="userSpaceOnUse" gradientTransform="translate(622.57 484.043) scale(30.3559 30.3968)">
<stop offset="0.64" stop-color="#90C8D8"/>
<stop offset="0.83" stop-color="#78B6C7"/>
<stop offset="1" stop-color="#BFE5F0"/>
</radialGradient>
<radialGradient id="paint13_radial_135_75" cx="0" cy="0" r="1" gradientUnits="userSpaceOnUse" gradientTransform="translate(28.1275 218.688) scale(18.4451 18.47)">
<stop offset="0.26" stop-color="#90C8D8"/>
<stop offset="1" stop-color="#78B6C7"/>
</radialGradient>
<radialGradient id="paint14_radial_135_75" cx="0" cy="0" r="1" gradientUnits="userSpaceOnUse" gradientTransform="translate(97.4988 208.423) scale(13.0439 13.0615)">
<stop offset="0.26" stop-color="#90C8D8"/>
<stop offset="1" stop-color="#78B6C7"/>
</radialGradient>
<radialGradient id="paint15_radial_135_75" cx="0" cy="0" r="1" gradientUnits="userSpaceOnUse" gradientTransform="translate(60.3879 211.992) scale(18.2614 18.2861)">
<stop offset="0.26" stop-color="#90C8D8"/>
<stop offset="1" stop-color="#78B6C7"/>
</radialGradient>
<radialGradient id="paint16_radial_135_75" cx="0" cy="0" r="1" gradientUnits="userSpaceOnUse" gradientTransform="translate(47.3442 225.237) scale(21.4581 21.487)">
<stop offset="0.26" stop-color="#90C8D8"/>
<stop offset="1" stop-color="#78B6C7"/>
</radialGradient>
<linearGradient id="paint17_linear_135_75" x1="128.767" y1="415.42" x2="174.531" y2="493.477" gradientUnits="userSpaceOnUse">
<stop stop-color="#EBE5DF"/>
<stop offset="1" stop-color="#C8B8A8"/>
</linearGradient>
<radialGradient id="paint18_radial_135_75" cx="0" cy="0" r="1" gradientUnits="userSpaceOnUse" gradientTransform="translate(330.525 364.384) scale(93.387 93.513)">
<stop offset="0.59" stop-color="#D3E6EC"/>
<stop offset="0.76" stop-color="#A4D5E3"/>
<stop offset="0.91" stop-color="#5C9EB1"/>
<stop offset="1" stop-color="#90C8D8"/>
</radialGradient>
<linearGradient id="paint19_linear_135_75" x1="311.268" y1="400.559" x2="296.05" y2="457.188" gradientUnits="userSpaceOnUse">
<stop stop-color="#ABD7E4"/>
<stop offset="1" stop-color="#74B0C1"/>
</linearGradient>
<linearGradient id="paint20_linear_135_75" x1="328.889" y1="432.652" x2="328.835" y2="453.412" gradientUnits="userSpaceOnUse">
<stop stop-color="#C7943F"/>
<stop offset="0.47" stop-color="#F7DEB8"/>
<stop offset="0.5" stop-color="#AD6812"/>
<stop offset="0.96" stop-color="#512801"/>
</linearGradient>
<radialGradient id="paint21_radial_135_75" cx="0" cy="0" r="1" gradientUnits="userSpaceOnUse" gradientTransform="translate(574.184 545.394) scale(79.1187 79.2255)">
<stop offset="0.88" stop-color="#8E2D1C"/>
<stop offset="1" stop-color="#5D3A19"/>
</radialGradient>
<radialGradient id="paint22_radial_135_75" cx="0" cy="0" r="1" gradientUnits="userSpaceOnUse" gradientTransform="translate(572.146 592.419) scale(10.5134 10.5276)">
<stop stop-color="#8E2D1C"/>
<stop offset="1" stop-color="#5D3A19"/>
</radialGradient>
<radialGradient id="paint23_radial_135_75" cx="0" cy="0" r="1" gradientUnits="userSpaceOnUse" gradientTransform="translate(576.491 550.846) scale(94.3257 94.453)">
<stop offset="0.81" stop-color="#8E2D1C"/>
<stop offset="0.91" stop-color="#F25430"/>
<stop offset="1" stop-color="#F29C50"/>
</radialGradient>
<radialGradient id="paint24_radial_135_75" cx="0" cy="0" r="1" gradientUnits="userSpaceOnUse" gradientTransform="translate(564.395 574.425) scale(88.8813 89.0012)">
<stop offset="0.8" stop-color="#8E2D1C"/>
<stop offset="1" stop-color="#28190B"/>
</radialGradient>
<clipPath id="clip0_135_75">
<rect width="668" height="688" fill="white"/>
</clipPath>
</defs>
</svg>
